<svg xmlns="http://www.w3.org/2000/svg" viewBox="0 0 250.5 80" width="250.5" height="80" role="img" aria-labelledby="title desc"><title id="title">Vaultly for dark backgrounds</title><desc id="desc">A teal V shaped like a vault-dial pointer inside an indigo dial ring cut by four index notches. Followed by the Vaultly wordmark.</desc><g transform="translate(8 8) scale(1)"><circle cx="32.0" cy="32.0" r="25.2" fill="none" stroke="#F8FAFC" stroke-width="5.8" stroke-dasharray="35.584 4" stroke-dashoffset="37.584"/><path d="M18.00 21.80L32.00 44.60L46.00 21.80L39.10 21.80L32.00 33.36L24.90 21.80Z" fill="#F8FAFC"/></g><path d="M108.29 57.00 96.25 23.00H103.34L109.16 40.21Q110.06 43.05 111.10 46.52Q112.14 50.00 113.42 54.26H111.54Q112.77 50.00 113.79 46.52Q114.81 43.05 115.68 40.21L121.31 23.00H128.31L116.52 57.00ZM137.83 57.40Q135.43 57.40 133.55 56.59Q131.68 55.79 130.60 54.19Q129.52 52.58 129.52 50.19Q129.52 48.13 130.28 46.78Q131.05 45.44 132.36 44.62Q133.68 43.81 135.39 43.39Q137.09 42.96 138.96 42.77Q141.18 42.54 142.49 42.34Q143.80 42.15 144.36 41.76Q144.93 41.37 144.93 40.58V40.41Q144.93 39.44 144.43 38.71Q143.93 37.98 143.00 37.56Q142.07 37.14 140.76 37.14Q139.44 37.14 138.44 37.56Q137.44 37.98 136.85 38.73Q136.27 39.48 136.18 40.46H130.25Q130.40 38.01 131.71 36.21Q133.01 34.40 135.35 33.40Q137.69 32.41 140.92 32.41Q143.33 32.41 145.22 32.97Q147.12 33.54 148.43 34.61Q149.74 35.68 150.42 37.19Q151.10 38.71 151.10 40.61V57.00H144.99V53.60H144.90Q144.30 54.72 143.37 55.58Q142.45 56.44 141.09 56.92Q139.74 57.40 137.83 57.40ZM139.47 52.93Q141.22 52.93 142.45 52.29Q143.68 51.65 144.32 50.57Q144.97 49.49 144.97 48.14V45.62Q144.69 45.78 144.19 45.94Q143.68 46.09 143.01 46.23Q142.33 46.37 141.53 46.50Q140.74 46.64 139.89 46.76Q138.70 46.94 137.71 47.32Q136.73 47.71 136.13 48.37Q135.54 49.04 135.54 50.07Q135.54 50.96 136.03 51.60Q136.52 52.25 137.40 52.59Q138.28 52.93 139.47 52.93ZM163.99 57.50Q161.46 57.50 159.53 56.40Q157.60 55.29 156.53 53.16Q155.46 51.04 155.46 47.98V32.90H161.70V46.90Q161.70 49.43 162.93 50.75Q164.15 52.07 166.35 52.07Q167.80 52.07 168.93 51.47Q170.06 50.88 170.70 49.62Q171.35 48.37 171.35 46.41V32.90H177.59V57.00H171.45V50.80H172.59Q171.43 54.00 169.32 55.75Q167.21 57.50 163.99 57.50ZM188.21 23.00V57.00H181.96V23.00ZM205.87 32.90V37.86H190.51V32.90ZM194.70 26.33H200.94V49.82Q200.94 51.07 201.45 51.56Q201.96 52.05 203.34 52.05Q203.91 52.05 204.67 52.05Q205.43 52.05 205.87 52.05V57.00Q205.26 57.00 204.23 57.00Q203.20 57.00 202.18 57.00Q198.33 57.00 196.52 55.48Q194.70 53.96 194.70 50.77ZM215.06 23.00V57.00H208.82V23.00ZM219.96 66.54V61.53H222.91Q223.70 61.53 224.22 61.27Q224.74 61.01 225.12 60.44Q225.50 59.87 225.82 58.93L226.60 56.89L217.31 32.90H223.89L228.12 45.13Q228.81 47.19 229.44 49.25Q230.07 51.32 230.68 53.39H228.93Q229.51 51.32 230.14 49.25Q230.78 47.18 231.47 45.13L235.69 32.90H242.20L231.50 60.84Q230.76 62.78 229.72 64.05Q228.68 65.31 227.28 65.92Q225.88 66.54 224.06 66.54Q223.05 66.54 222.01 66.54Q220.96 66.54 219.96 66.54Z" fill="#F8FAFC"/></svg>
